<svg id="Layer_1" data-name="Layer 1" xmlns="http://www.w3.org/2000/svg" viewBox="0 0 183.75 183.75"><defs><style>.cls-1{fill:#a09f9f;}.cls-2{fill:#fff;}</style></defs><title>instagram_grey</title><rect class="cls-1" width="183.75" height="183.75"/><path class="cls-2" d="M117.59,28H65.44A38.48,38.48,0,0,0,27,66.44v52.15A38.48,38.48,0,0,0,65.44,157h52.15A38.48,38.48,0,0,0,156,118.59V66.44A38.48,38.48,0,0,0,117.59,28Zm25.46,90.59a25.46,25.46,0,0,1-25.46,25.46H65.44A25.46,25.46,0,0,1,40,118.59V66.44A25.46,25.46,0,0,1,65.44,41h52.15a25.46,25.46,0,0,1,25.46,25.46v52.15Z" transform="translate(-0.12 -0.13)"/><path class="cls-2" d="M91.52,59.14a33.38,33.38,0,1,0,33.37,33.38A33.43,33.43,0,0,0,91.52,59.14Zm0,53.77a20.39,20.39,0,1,1,20.39-20.39A20.38,20.38,0,0,1,91.52,112.91Z" transform="translate(-0.12 -0.13)"/><circle class="cls-2" cx="124.83" cy="59.27" r="8"/></svg>