<svg id="Layer_1" data-name="Layer 1" xmlns="http://www.w3.org/2000/svg" viewBox="0 0 667 211.88"><defs><style>.cls-1{fill:#fff;}</style></defs><title>pepe_logo_white</title><path class="cls-1" d="M25.88,99.55H0V0H41.19Q58,0,66.87,8.71t8.92,24.56q0,15.84-8.92,24.56T41.19,66.54H25.88Zm0-53.87h8.58q14.26,0,14.26-12.41T34.46,20.86H25.88Z"/><path class="cls-1" d="M146.16,21.92H115.39V38.55h29.05V60.47h-29V77.63h30.77V99.55H89.51V0h56.65Z"/><path class="cls-1" d="M190.65,99.55H164.77V0H206q16.77,0,25.69,8.71t8.91,24.56q0,15.84-8.91,24.56T206,66.54H190.65Zm0-53.87h8.58q14.27,0,14.26-12.41T199.23,20.86h-8.58Z"/><path class="cls-1" d="M310.93,21.92H280.17V38.55h29V60.47h-29V77.63h30.76V99.55H254.29V0h56.64Z"/><path class="cls-1" d="M110,109.55V178.6a64.81,64.81,0,0,1-.47,8.06A25.78,25.78,0,0,1,108,193a28.55,28.55,0,0,1-4.69,7.72,29.08,29.08,0,0,1-6.93,5.94,35,35,0,0,1-8.78,3.83,36.56,36.56,0,0,1-10.1,1.39q-16,0-26-14.66l16.9-17.3a13.92,13.92,0,0,0,2.9,7.13,7,7,0,0,0,5.55,2.64q7.26,0,7.26-11.48V109.55Z"/><path class="cls-1" d="M156.85,109.55V209.1H131V109.55Z"/><path class="cls-1" d="M173.21,209.1l16.91-99.55h25.61l19.94,53.08,19.8-53.08h25.61L298,209.1H272.24l-8.58-57.3-23.51,57.3H229.86l-22.32-57.3L199,209.1Z"/><path class="cls-1" d="M371,131.47H340.23V148.1h29V170h-29v17.17H371V209.1H314.36V109.55H371ZM366.11,84.2l-25.35,17.43-10-9.37,21.52-20.6Z"/><path class="cls-1" d="M389.61,209.1V109.55h25.88l47.79,60.87V109.55H489V209.1H463.28l-47.79-60.86V209.1Z"/><path class="cls-1" d="M566.53,131.47H535.77V148.1h29.05V170H535.77v17.17h30.76V209.1H509.89V109.55h56.64Z"/><path class="cls-1" d="M620.13,187.19h41.72V209.1H576.69l47.14-77.63H584.62V109.55H667Z"/></svg>