<svg id="Layer_1" data-name="Layer 1" xmlns="http://www.w3.org/2000/svg" viewBox="0 0 611.27 105.34"><defs><style>.cls-1{fill:#fff;}</style></defs><title>pepe_white</title><path class="cls-1" d="M0,0H16.11a25.32,25.32,0,0,1,5.06.5,13.57,13.57,0,0,1,4.95,2.71,11,11,0,0,1,3.41,4.41,14.6,14.6,0,0,1,1.37,6.54,14.16,14.16,0,0,1-3.48,9.28Q23.85,27.85,17,28H6.73V45.89H0ZM6.73,21.43h10A7,7,0,0,0,22.37,19,8,8,0,0,0,24.17,14a9.22,9.22,0,0,0-.73-3.89A5.76,5.76,0,0,0,21.3,7.84a8.25,8.25,0,0,0-4.83-1.3H6.73Z"/><path class="cls-1" d="M76.88,0h28.39V6.54H83.61V19.67H102.1v6.17H83.61v13.5h21.66v6.55H76.88Z"/><path class="cls-1" d="M151.4,0h16.11a25.47,25.47,0,0,1,5.06.5,13.46,13.46,0,0,1,4.94,2.71,11,11,0,0,1,3.41,4.41,14.47,14.47,0,0,1,1.37,6.54,14.16,14.16,0,0,1-3.48,9.28q-3.57,4.41-10.43,4.54H158.13V45.89H151.4Zm6.73,21.43h10a7,7,0,0,0,5.65-2.4A8,8,0,0,0,175.57,14a9.21,9.21,0,0,0-.74-3.89,5.76,5.76,0,0,0-2.14-2.24,8.22,8.22,0,0,0-4.82-1.3h-9.74Z"/><path class="cls-1" d="M228.27,0h28.4V6.54H235V19.67h18.49v6.17H235v13.5h21.67v6.55h-28.4Z"/><path class="cls-1" d="M70.58,95.34A7.37,7.37,0,0,0,73,97.45a6.29,6.29,0,0,0,3.51,1,7.61,7.61,0,0,0,5.11-1.92,6.56,6.56,0,0,0,1.86-2.58,9.5,9.5,0,0,0,.7-3.87v-31h6.72V90.71q-.12,6.93-4.38,10.7a14.36,14.36,0,0,1-9.83,3.93q-7.8-.18-11.73-6Z"/><path class="cls-1" d="M151.38,59.08h6.72V105h-6.72Z"/><path class="cls-1" d="M218.59,59.08h6.34L237.67,89l12.5-29.91h6.37V105h-6.73V76.35h-.15l-9.31,22h-5.61l-9.3-22h-.12V105h-6.73Z"/><path class="cls-1" d="M318,59.08h28.39v6.54H324.76V78.76h18.49v6.16H324.76v13.5h21.66V105H318Zm16.11-11.64h8.37l-8.86,9.37h-5.23Z"/><path class="cls-1" d="M404.47,59.08h6.34L430.94,91.7h.12V59.08h6.73V105h-6.37l-20.1-32.62h-.12V105h-6.73Z"/><path class="cls-1" d="M499.16,59.08h28.39v6.54H505.89V78.76h18.49v6.16H505.89v13.5h21.66V105H499.16Z"/><path class="cls-1" d="M582.89,99.21l20.15-34h-20V59.08h28.21v5.23L590.41,98.42h20.86V105H582.89Z"/></svg>